<svg width="20" height="20" viewBox="0 0 20 20" fill="none" xmlns="http://www.w3.org/2000/svg">
<path d="M17.2344 2.45897C17.5763 2.5546 17.9952 2.76645 18.2774 3.13084C18.151 2.91858 17.9621 2.72476 17.7774 2.58592C18.2048 2.82174 18.5055 3.25553 18.6739 3.69529C18.5074 3.13113 18.5204 3.20885 18.6504 3.43651C18.7732 3.67811 18.8263 4.02729 18.8311 4.03904C18.8449 4.03329 18.8235 3.60602 18.7901 3.5117C19.0307 3.93721 18.9654 5.01926 19.0723 4.38182C19.0581 4.49626 19.0839 4.77013 19.087 4.77928C19.1419 4.74849 19.116 4.11881 19.1465 4.21873C19.1943 4.33779 19.1422 4.5082 19.1329 4.68846C19.0469 5.54206 19.2718 5.35687 19.0079 6.11131C19.0197 6.09849 19.0313 6.08514 19.043 6.07225C18.7606 6.85359 18.4053 7.51924 18.0274 8.16697C17.9384 8.44847 17.5689 9.1208 17.3555 9.43162C17.3148 9.49291 17.0873 9.78106 17.0664 9.80174C17.0297 9.83882 17.1827 9.60328 17.0967 9.69822C17.0797 9.71924 16.7217 10.2225 16.7706 10.2051C16.8127 10.1511 16.9212 9.96467 16.9483 9.93748C17.1374 9.77022 16.0104 11.2933 15.9639 11.374C15.9971 11.3463 16.0303 11.3178 16.0635 11.29C15.9883 11.3832 15.9133 11.4762 15.8379 11.5683C15.8597 11.5248 15.8818 11.4811 15.9034 11.4375C15.8171 11.5437 15.7113 11.6942 15.628 11.79C15.6148 11.8044 15.626 11.7481 15.5957 11.7861C15.5657 11.8241 15.5986 11.837 15.5586 11.8955C15.5138 11.9613 15.2708 12.2381 15.1934 12.3379C14.9059 12.7107 14.623 13.0957 14.3135 13.4531C14.6037 13.0562 14.2715 13.4259 14.1934 13.5381C14.1766 13.5626 14.2271 13.6003 13.9063 13.9629C13.698 14.1975 13.8128 13.9236 13.5166 14.3457C13.8172 14.0832 13.568 14.3743 13.3653 14.6162C13.3282 14.6609 13.0445 14.9787 12.919 15.1279C12.8759 15.1794 12.8337 15.2767 12.7774 15.3428C12.7387 15.3881 12.6962 15.4114 12.6397 15.4775C12.3691 15.7936 12.0987 16.1008 11.8204 16.4023C11.916 16.1768 11.6738 16.5148 11.6504 16.5351C11.5685 16.5941 11.8621 16.257 11.7354 16.3779C11.5629 16.5744 11.4211 16.7351 11.2403 16.9375C11.3811 16.7977 11.1227 17.1634 11.0303 17.2256C11.0723 17.2388 10.8002 17.4966 10.5362 17.7392L9.69438 18.6201L8.92289 17.7265C8.75755 17.5072 8.61634 17.3127 8.56157 17.2627C8.53575 17.2391 8.6608 17.4405 8.31547 17.0039C8.27771 16.9559 8.30756 16.9603 8.2852 16.9365C8.27165 16.9226 8.14282 16.8684 8.0977 16.7578C8.07785 16.713 8.29731 16.9138 7.87797 16.4316C7.98636 16.668 7.3048 15.7842 7.18364 15.6045C7.20166 15.6408 7.22089 15.6786 7.24125 15.7178C7.13013 15.542 7.09374 15.5314 7.06547 15.4941C6.95516 15.3481 6.80752 15.1268 6.70317 14.9971C6.57708 14.8402 6.54616 14.8643 6.4102 14.665C6.43845 14.7154 6.46706 14.7663 6.49516 14.8164C6.39298 14.6822 6.29954 14.5566 6.20121 14.4258C6.46947 14.689 6.1564 14.3641 6.13383 14.3369C6.10278 14.2996 6.16193 14.3411 6.11039 14.2783C6.1049 14.2718 6.09608 14.2941 6.01762 14.1953C5.85618 13.9915 5.90199 14.0102 5.83598 13.9238C5.82981 13.9158 5.83687 13.9546 5.71977 13.8066C5.34634 13.3324 5.73259 13.8024 5.74809 13.8183C5.76803 13.8383 5.70525 13.6347 5.9893 14.0508C5.89393 13.912 5.90819 13.877 5.8975 13.8613C5.88802 13.848 5.70773 13.6175 5.69438 13.6015C5.59716 13.4909 5.65716 13.6073 5.63676 13.5869C5.61749 13.5666 5.43 13.269 5.32719 13.2412C5.27436 13.0672 5.43136 13.2878 5.60844 13.5078C5.64291 13.5329 5.46859 13.2809 5.4561 13.2637C5.21427 12.9386 5.30768 13.1481 5.22954 13.0967C5.18837 13.0692 5.1166 12.9142 5.17192 13.0654C4.9495 12.7702 5.10309 12.9349 5.09184 12.9131C5.07492 12.8808 4.99076 12.7867 4.98149 12.7715C4.96961 12.7509 5.02965 12.8076 4.97954 12.7295C4.97104 12.7165 4.8611 12.6108 4.96489 12.7754C4.81564 12.5634 4.81 12.5929 4.79496 12.4941C4.622 12.4002 4.75928 12.3586 4.7227 12.2988C4.62535 12.1412 4.60242 12.2208 4.59379 12.2168C4.53698 12.1742 4.2566 11.7358 4.17582 11.6347C4.24358 11.649 4.4115 11.9727 4.46586 12.0332C4.6459 12.2344 4.26777 11.7093 4.42875 11.833C4.36839 11.7759 4.30828 11.7188 4.24809 11.6611C4.19401 11.5149 4.32855 11.6801 4.08793 11.3555C4.02322 11.3202 4.25384 11.5879 4.19243 11.5449C4.15602 11.5195 4.02194 11.33 4.01176 11.3291C4.00114 11.3309 4.12908 11.4974 4.09965 11.4805C4.03071 11.4394 3.6231 10.7815 3.96684 11.2588C3.8744 11.1235 3.87928 11.0159 3.78325 10.9082C3.72265 10.8399 3.93586 11.3216 3.51957 10.6621C3.53568 10.6331 3.69815 10.918 3.70512 10.9238C3.71464 10.9305 3.73732 10.8433 3.73442 10.833C3.72186 10.7977 3.25643 10.1493 3.19731 9.98729C3.2006 10.0675 2.87238 9.4749 2.82719 9.41795C2.81448 9.40293 2.83117 9.47747 2.8184 9.46092C2.73987 9.35883 2.59494 9.02865 2.51567 8.88475C2.42722 8.72508 2.42211 8.75492 2.41703 8.74608C2.37925 8.67539 2.4221 8.72442 2.39848 8.68162C2.36221 8.61965 2.12028 8.15609 2.10746 8.13279C2.1033 8.12646 2.1205 8.21145 2.06645 8.11424C2.05726 8.09615 2.08565 8.10061 1.92485 7.79393C1.73689 7.42817 2.01901 8.06689 1.92094 7.92479C1.84045 7.66699 1.81159 7.69295 1.78422 7.62694C1.77543 7.60475 1.72867 7.42302 1.64653 7.23045C1.70823 7.36527 1.77421 7.50219 1.83696 7.62596C1.78586 7.50285 1.66364 7.23797 1.627 7.12694C1.60864 7.07242 1.65003 7.1057 1.60454 6.99119C1.59576 6.96732 1.4939 6.89271 1.6436 7.18651C1.63184 7.21983 1.58614 7.06802 1.55473 7.00389C1.54884 6.99278 1.49941 6.97233 1.48735 6.8701C1.49101 6.84968 1.66468 7.0402 1.38774 6.45701C1.37919 6.4381 1.38667 6.51052 1.37797 6.49217C1.37119 6.47808 1.33095 6.32022 1.32329 6.29783C1.31584 6.27944 1.32389 6.36708 1.3145 6.34471C1.26582 6.22872 1.28563 6.05834 1.34575 6.30369C1.33026 6.21969 1.31677 6.13601 1.30571 6.05369C1.28089 6.15004 1.26333 5.93296 1.24321 5.81639C1.13686 5.0178 1.17282 5.55448 1.14164 5.41893C1.11127 5.1887 1.17961 5.36451 1.17778 4.99119C1.17796 4.97405 1.16135 5.07195 1.15532 5.07615C1.15915 5.06668 1.13091 5.02417 1.18461 4.78904L1.20805 4.70408C1.19164 4.7796 1.18075 4.85256 1.17387 4.91404C1.21005 4.85974 1.29068 4.38641 1.32036 4.3535C1.40849 4.15412 1.44443 4.12102 1.47856 4.06736C1.5178 4.019 1.56161 3.91507 1.80864 3.69236C1.85394 3.65266 1.96538 3.58415 2.07426 3.51951C2.29019 3.40224 2.14766 3.45128 1.93266 3.58494C1.72169 3.71071 1.5073 3.96768 1.49125 3.98143C1.48066 3.98649 1.69124 3.69667 1.98637 3.52733C2.2774 3.35216 2.54253 3.30215 2.56743 3.29588C2.72713 3.26066 2.07928 3.46313 2.21293 3.44725C2.22885 3.44338 2.37491 3.37438 2.59282 3.32225C2.80679 3.27119 3.02452 3.24796 3.26762 3.24608C3.53884 3.24386 3.78158 3.27678 3.87504 3.2949C4.1554 3.35049 4.25745 3.44221 4.27543 3.38084C4.33642 3.45998 4.41281 3.43808 4.44633 3.44822C4.84635 3.58246 4.84358 3.58828 5.16704 3.72654C5.23697 3.75805 5.28701 3.80395 5.31254 3.81346C5.32743 3.81897 5.31022 3.78725 5.38188 3.81736C5.48784 3.85381 6.01716 4.19982 6.04496 4.23924C6.07748 4.27264 5.82134 4.09878 5.85844 4.14451C6.0475 4.26647 6.22379 4.38498 6.40043 4.52049C6.47283 4.57648 6.42875 4.55778 6.46 4.58201C6.47788 4.59417 6.72741 4.77994 6.71879 4.76854C6.70769 4.72959 5.91094 4.15666 6.13188 4.29197C6.17625 4.31713 6.303 4.44387 6.29985 4.3994C7.00959 4.92859 7.6139 5.53602 8.16606 6.17283C7.82882 5.826 7.46399 5.41569 7.07719 5.07029C7.02507 5.02256 6.84548 4.86193 6.85649 4.89451C7.19087 5.18437 7.58433 5.55802 7.85844 5.8701C7.86725 5.88007 7.82331 5.8555 7.85551 5.89354C7.91658 5.96417 8.13513 6.17242 8.16313 6.21483C8.15559 6.21071 8.0413 6.10924 8.06547 6.15428C8.13091 6.27582 8.20425 6.25334 8.27934 6.34178C8.34066 6.41053 8.69018 6.8876 8.79692 6.99412C8.91202 7.1031 8.53486 6.64265 8.57524 6.666C8.84488 6.96728 9.07604 7.30398 9.29887 7.61033C9.30238 7.61474 9.28002 7.56012 9.3311 7.62791C9.42078 7.74765 9.42355 7.7864 9.46391 7.84959C9.49463 7.89718 9.57984 8.02578 9.63286 8.1074C9.73597 7.89952 9.83588 7.71107 9.91996 7.58006C9.81687 7.75989 9.72684 7.93922 9.64164 8.12205C9.65229 8.13868 9.66221 8.15187 9.66801 8.16209C10.0121 7.45302 10.4038 6.76939 10.8457 6.11522C10.9623 5.95115 10.9221 6.05454 11.1065 5.78123C11.0492 5.84613 10.9931 5.91007 10.9366 5.97654C11.0326 5.83788 11.4981 5.24036 11.5762 5.14647C11.5859 5.1339 11.5805 5.10084 11.7022 4.95506C11.811 4.8262 11.8434 4.81784 11.9063 4.75291C11.9593 4.69839 12.0141 4.63295 12.0303 4.61717C12.0427 4.60533 12.0553 4.6075 12.085 4.57908C12.1802 4.48827 12.0849 4.54408 12.2012 4.47459C12.18 4.49803 12.1587 4.52128 12.1377 4.5449C12.2512 4.43408 12.4166 4.29426 12.2569 4.46385C12.2297 4.49325 12.2466 4.46209 12.2256 4.48338C11.4355 5.34144 12.0693 4.66052 12.3536 4.36424C12.4353 4.29744 12.8734 3.89727 12.8946 3.89061C12.9176 3.87748 12.8477 3.94971 12.9571 3.87401C12.9729 3.84986 13.6197 3.38303 13.3965 3.56346C13.3481 3.5981 13.0389 3.82161 12.9698 3.88182C13.1529 3.76732 13.5435 3.44426 13.5977 3.41697C13.796 3.29747 13.2381 3.67798 13.6797 3.40233C14.0259 3.20167 13.6913 3.37396 13.8204 3.28904C13.8916 3.23688 14.3098 3.05624 14.2901 3.03807C14.4327 2.97259 14.3563 3.02252 14.3731 3.01658C14.39 3.00814 14.677 2.887 14.7764 2.86424C14.7878 2.86148 14.7562 2.88653 14.7686 2.88377C14.7926 2.87553 15.0749 2.79206 15.0909 2.78904C15.0981 2.78625 15.0261 2.79154 15.0538 2.78123C15.0858 2.76683 15.3686 2.70947 15.3858 2.70506C15.4068 2.69257 15.0559 2.77074 15.1114 2.7451C15.2733 2.70767 15.5377 2.65479 15.6465 2.63279C15.6198 2.63839 15.4593 2.66087 15.4043 2.6699C15.4229 2.64485 15.6976 2.60861 15.6788 2.62205C15.7179 2.61099 15.6844 2.61242 15.7207 2.60154C15.734 2.59795 15.8373 2.58943 15.8584 2.58494C15.8513 2.58395 15.7519 2.58363 15.7725 2.57811C15.8123 2.56419 16.1391 2.55438 16.167 2.55955C16.2427 2.56473 15.9769 2.57239 15.9532 2.58397C15.9615 2.58476 16.1759 2.59769 16.1807 2.60057C16.1935 2.61508 15.9429 2.60739 15.9717 2.62205C16.0336 2.62269 16.096 2.62469 16.1582 2.62791C15.9187 2.63554 15.4815 2.68036 15.375 2.72166C15.7185 2.65116 16.0881 2.64762 16.0879 2.68553C16.0877 2.70069 15.9391 2.71539 15.9454 2.71971C15.969 2.73132 16.172 2.71211 16.1827 2.71385C16.189 2.71476 16.1924 2.71595 16.1924 2.71678C16.1869 2.72285 15.8965 2.7359 15.8829 2.74315C15.859 2.75128 15.9903 2.7726 15.9903 2.77928C15.9845 2.77961 15.7813 2.79952 15.8506 2.80565C15.9197 2.81016 16.0953 2.80506 16.1075 2.80662C16.1414 2.81039 15.8283 2.83036 15.8204 2.83787C15.8268 2.83943 15.9834 2.8408 15.9883 2.84471C15.9825 2.84841 15.8646 2.86273 15.8184 2.87791C15.7826 2.88909 15.8885 2.88583 15.8711 2.88865C15.8587 2.88784 15.5658 2.92163 15.5528 2.92772C15.5326 2.93296 15.6007 2.9326 15.5918 2.93651C15.5783 2.94174 15.4854 2.9533 15.4981 2.95506C15.5126 2.95236 15.8727 2.94218 15.8692 2.95506C15.8605 2.96801 15.4877 2.97509 15.8428 2.99803C15.8451 2.998 15.9244 2.98752 15.9317 2.98729C15.9846 2.99539 15.7147 3.02845 16.0469 3.00682C15.4321 3.07099 15.9715 3.03252 15.8819 3.06541C15.8476 3.07613 15.6142 3.1089 15.6123 3.11229C15.6368 3.12125 15.711 3.10116 15.7373 3.10447C15.7464 3.10598 15.5449 3.14937 15.5928 3.15135C15.6185 3.15012 15.8392 3.1214 15.8477 3.12303C15.9345 3.12359 15.8305 3.14119 15.8487 3.14549C15.8615 3.14763 15.9944 3.13859 15.9981 3.13963C15.9965 3.14095 15.8263 3.16883 15.7891 3.17967C15.7612 3.1869 15.8674 3.1825 15.8477 3.18651C15.7293 3.20753 15.4759 3.21961 15.7227 3.22361C15.7375 3.2238 15.8265 3.2128 15.8321 3.21287C15.8896 3.21811 15.7209 3.2365 15.6924 3.25096C15.6438 3.2734 15.8818 3.23295 15.6846 3.27049C15.8359 3.26034 15.9166 3.25135 16.0928 3.24119C15.6079 3.2798 15.4495 3.35672 15.9776 3.29588C15.8094 3.30819 15.8304 3.33203 15.7803 3.33787C15.7487 3.33996 15.5048 3.35746 15.6231 3.39061C15.6395 3.39343 15.7803 3.3646 15.7383 3.38377C15.3905 3.43626 15.7316 3.39224 15.7325 3.39549C15.7282 3.40466 14.8936 3.59038 14.7637 3.67772C14.6066 3.74895 14.4823 3.84361 14.4493 3.86131C14.3407 3.91972 14.424 3.85925 14.3975 3.86815C14.367 3.87604 14.0813 4.07639 14.0655 4.08885C14.0105 4.11898 14.0468 4.07902 14.0489 4.0742C13.9694 4.1084 13.59 4.40338 13.4873 4.49217C13.4981 4.495 13.7064 4.32792 13.586 4.44627C13.4498 4.58282 13.412 4.56105 13.4053 4.56151C12.722 5.15825 12.1459 5.89592 11.6475 6.68162C11.6739 6.68223 11.9941 6.16731 12.0079 6.16014C12.0614 6.10427 11.4998 6.95689 11.4366 7.06639C11.4894 6.98799 11.5433 6.90904 11.5987 6.83006C11.5367 6.98612 11.3217 7.2756 11.2198 7.49217C11.1873 7.56077 11.2669 7.43951 11.2676 7.44041C11.2358 7.52257 11.1629 7.63866 11.1973 7.541C11.113 7.73039 11.1101 7.69921 11.0352 7.8408C11.0331 7.84574 11.073 7.79519 11.0215 7.90721C10.9953 7.96222 10.8566 8.24395 10.8467 8.29197C10.8432 8.30996 10.9584 8.1847 10.9288 8.1494C11.1006 7.84847 10.9616 8.04009 11.0225 7.92088C11.0328 7.9026 11.0277 7.95689 11.1768 7.65037C11.1813 7.72806 10.978 8.05759 10.9532 8.12205C10.9012 8.2497 11.1723 7.75484 11.1963 7.64647C11.2028 7.70344 11.2184 7.61355 11.2803 7.50291C11.3488 7.3813 11.3284 7.43843 11.3643 7.37401C11.464 7.19754 11.4032 7.2591 11.5059 7.12303C11.3683 7.23174 11.6447 6.86938 11.7295 6.76854C11.6187 6.9516 11.5122 7.13704 11.4092 7.32615C11.418 7.31736 11.4268 7.3086 11.4356 7.29979C11.4074 7.34853 11.3804 7.39595 11.3526 7.44529C11.3542 7.43584 11.3561 7.42607 11.3575 7.41697C11.2333 7.6855 11.1837 7.73426 11.1709 7.75682C11.0278 8.02398 10.8717 8.34672 10.7452 8.62889C10.7273 8.67006 10.756 8.65178 10.6084 8.95311C10.5607 9.05223 10.584 8.95233 10.5401 9.06444C10.5245 9.22385 10.4917 9.20824 10.4756 9.24803C10.4261 9.37227 10.412 9.44358 10.4063 9.45897C10.3841 9.51997 10.3505 9.60963 10.3291 9.67283L9.89555 10.9482L9.19145 9.77928C9.1431 9.70085 9.07081 9.58855 9.01957 9.51268C9.0189 9.51282 9.05391 9.59264 8.99614 9.49705C8.97496 9.4616 8.82709 9.12493 8.62309 8.87694C8.66637 8.94464 8.71274 9.01857 8.7559 9.08787C8.70564 8.99952 8.29043 8.46118 8.37407 8.60447C8.42897 8.69473 8.60787 8.87128 8.59184 8.91697C8.47719 8.71757 7.68765 7.74576 7.62407 7.67283C7.61802 7.6632 7.68054 7.71619 7.66996 7.70115C7.66086 7.68756 7.47378 7.47574 7.45121 7.44334C7.43969 7.42546 7.52866 7.51472 7.52543 7.50389C7.51993 7.49104 7.29376 7.22881 7.26371 7.22166C7.32915 7.28257 7.48523 7.46798 7.38969 7.38182C7.37741 7.37055 7.32883 7.29962 7.31352 7.28611C7.17325 7.16098 7.54903 7.57177 7.60356 7.63963C7.35964 7.38532 7.01368 6.97046 6.71586 6.70115C6.61056 6.57766 6.90202 6.85472 6.78032 6.71776C6.53625 6.44671 6.68062 6.64263 6.68461 6.6533C6.6077 6.59722 6.42622 6.3231 6.38481 6.36717C6.2892 6.26948 6.32721 6.29254 6.1768 6.17283C6.19315 6.19229 6.20939 6.21185 6.22563 6.23143C6.04461 6.11569 5.75169 5.7772 5.77739 5.78904C5.86107 5.82861 6.02634 5.99696 6.04204 6.00975C6.06534 6.0283 6.17069 6.03204 6.37895 6.29002C6.50817 6.34782 6.00585 5.92931 6.24907 6.10252C6.09898 5.96537 5.4619 5.45147 5.35063 5.41502C5.33826 5.41102 5.36863 5.47658 5.21391 5.35545C5.13968 5.29786 5.33204 5.41602 5.30082 5.38572C5.25333 5.3389 4.84318 5.0711 4.38969 4.90526C3.93706 4.72834 3.46232 4.70144 3.31743 4.71092C3.29875 4.71133 3.30458 4.69817 3.28715 4.69822H3.28618C3.2139 4.69824 3.02653 4.73878 2.95512 4.75486C3.12382 4.73906 2.80296 4.8213 2.79789 4.84666C2.74835 4.87843 2.74251 4.85695 2.7227 4.87108C2.64866 4.89282 2.66493 5.22977 2.65532 5.43846C2.70334 5.41857 2.69746 5.80092 2.76664 5.99412C2.8103 6.13 2.92724 6.32875 2.87602 6.12791C2.96609 6.38244 3.08491 6.62325 3.20219 6.85838C3.22018 6.89433 3.18039 6.85155 3.21196 6.91307C3.21505 6.91873 3.23406 6.91991 3.26274 6.97361C3.50947 7.4252 3.36644 7.22072 3.40141 7.31151C3.42186 7.36233 3.43814 7.39673 3.45121 7.42283C3.30137 7.15613 3.1471 6.85515 3.10746 6.76951C3.10248 6.85435 3.41168 7.36669 3.48637 7.51463C3.48893 7.52003 3.46112 7.51219 3.46391 7.51756C3.49165 7.57411 3.70817 7.93712 3.68657 7.84959C3.67979 7.82492 3.58079 7.65503 3.4727 7.4619C3.50518 7.51155 3.50404 7.46306 3.50981 7.47069C3.57968 7.57595 3.72616 7.87636 3.77934 7.97069C3.7918 7.99302 3.80333 7.98494 3.80571 7.98826C3.85569 8.07863 3.79765 8.06332 3.89067 8.13279C3.942 8.32119 3.70274 7.835 3.69438 7.88572C3.67903 7.9263 4.32774 8.94164 4.37211 8.92088C4.37077 8.92707 4.37608 8.94428 4.38969 8.97654C4.41871 9.04748 4.60998 9.32634 4.65043 9.37108C4.65769 9.37782 4.69012 9.35239 4.69731 9.36229C4.71726 9.39129 4.92418 9.74909 5.03422 9.86131C4.99071 9.78929 4.94707 9.71723 4.90434 9.64549C5.19427 10.0594 5.16218 9.98809 5.07426 9.84276C5.06953 9.83582 5.06604 9.82792 5.06157 9.82127C4.99372 9.70904 4.90591 9.56734 4.90727 9.56346C4.91539 9.55693 5.41348 10.2462 5.28618 10.1338C5.26537 10.1141 5.05193 9.78446 5.14262 9.95994C5.15847 9.99108 5.31517 10.1958 5.32036 10.208C5.35452 10.2918 5.00722 9.85287 5.02348 9.92479C5.1244 10.0201 5.21509 10.1716 5.31157 10.293C5.35534 10.3479 5.38314 10.3497 5.38871 10.3564C5.47006 10.4589 5.40848 10.4132 5.43461 10.4482C5.45009 10.4685 5.63958 10.6473 5.55766 10.6465C6.10435 11.3005 5.7347 10.8077 5.42485 10.3887C5.54079 10.5078 5.72405 10.7751 5.81547 10.8877C5.84811 10.9278 5.84729 10.8907 5.90336 10.958C6.01773 11.0977 6.52406 11.7985 6.6602 11.9795C6.56795 11.8747 6.57313 11.9213 6.64067 12.0049C6.70795 12.0879 6.67926 11.9987 6.69438 12.0117C6.71175 12.0286 7.00797 12.4278 7.06547 12.4922C6.82079 12.2046 6.85304 12.2855 7.0518 12.539C7.01704 12.507 6.98138 12.4737 6.94731 12.4424C7.07347 12.5852 7.29211 12.9166 7.36821 12.9922C7.38017 13.004 7.35886 12.9452 7.36528 12.9512C7.43093 13.0182 7.62336 13.2881 7.63774 13.2939C7.65051 13.3 7.57681 13.1815 7.61625 13.2158C7.62452 13.223 7.68658 13.3449 7.77446 13.4404C7.80699 13.4757 7.80492 13.4406 7.81352 13.4492C7.88475 13.5202 7.82025 13.496 7.94536 13.6387C8.03715 13.743 8.12966 13.801 8.24028 13.9502C7.87899 13.4513 8.1947 13.8583 8.37407 14.0508C8.40264 14.0812 8.41002 14.0323 8.55668 14.2334C8.16098 13.8696 8.62572 14.3721 8.71391 14.4756C8.71884 14.4817 8.70188 14.5 8.74711 14.5537C8.75095 14.558 8.75903 14.5408 8.8018 14.5888C9.20075 15.0349 8.93617 14.7571 8.99711 14.8535C9.02174 14.893 9.23981 15.1088 9.28813 15.1631C9.29966 15.1762 9.28175 15.1814 9.32621 15.2314C9.40761 15.3229 9.50157 15.4028 9.55473 15.4609C9.56053 15.4674 9.54205 15.4881 9.64555 15.5918C9.67702 15.6237 9.71977 15.6579 9.68168 15.6025C9.57327 15.4404 9.2757 15.1684 9.14457 14.9765C9.02648 14.8044 9.45545 15.2944 9.48832 15.331C9.49549 15.3394 9.39784 15.2493 9.48539 15.3535C9.54213 15.4209 9.64735 15.5003 9.74321 15.5947C9.82782 15.5383 9.92246 15.4751 9.96293 15.4238C10.028 15.342 9.97334 15.3366 9.97758 15.3281C9.98508 15.3151 10.074 15.2169 10.0997 15.1767C10.1292 15.1302 10.0981 15.1391 10.1495 15.0674C10.262 14.9066 10.2962 14.938 10.3116 14.9248C10.4965 14.7591 10.3769 14.7967 10.4082 14.751C10.4455 14.7 10.9152 14.1746 10.9942 14.0498C10.9632 14.1027 10.9337 14.1529 10.9014 14.207C10.9928 14.1424 11.0271 14.0245 11.0694 14.0566C11.0175 13.9851 11.2027 13.8477 11.2452 13.792C11.2616 13.7703 11.2495 13.7623 11.2706 13.7353C11.3539 13.6286 11.5401 13.4146 11.5801 13.3525C11.7443 13.0954 11.2222 13.663 11.1758 13.7138C11.2585 13.6146 11.6717 13.0654 11.4414 13.2871C11.4056 13.3218 11.3813 13.4151 11.3653 13.4375C11.2572 13.5882 11.3213 13.4527 11.3096 13.4619C11.2895 13.479 11.2408 13.5917 11.2159 13.6162C11.2081 13.6235 11.2287 13.5495 11.1133 13.6914C11.1519 13.5962 11.476 13.2296 11.5147 13.1689C11.5256 13.1501 11.3878 13.2209 11.7022 12.9248C11.6947 12.9248 11.6872 12.9248 11.6797 12.9248C11.8231 12.7386 11.9716 12.5428 12.1153 12.3525C12.1107 12.3817 12.0522 12.5048 12.1495 12.3691C12.2056 12.2907 12.1372 12.3267 12.1416 12.3193C12.1896 12.2495 13.1309 11.0174 13.2969 10.7724C13.3559 10.6894 13.5 10.4435 13.5118 10.4258C13.5849 10.3195 13.8592 9.9569 13.9073 9.87986C13.9375 9.83181 13.8853 9.86026 13.9151 9.81932C13.9426 9.78174 13.9365 9.83699 13.9454 9.82615C14.0216 9.73665 14.48 8.99037 14.6104 8.83006C14.5376 8.93188 14.231 9.49111 14.253 9.49022C14.2614 9.48385 14.3592 9.37296 14.3682 9.34178C14.4164 9.31182 14.4586 9.11976 14.5235 9.04588C14.5308 9.03752 14.5402 9.09624 14.6416 8.95408C14.6768 8.90475 14.7357 8.75764 14.8497 8.64354C14.9673 8.43963 15.6198 7.44549 15.6133 7.35154C15.6094 7.3531 15.5181 7.48656 15.5577 7.37986C15.6104 7.23569 15.6143 7.39408 15.7051 7.24412C15.7227 7.21744 15.9329 6.80474 15.9375 6.78123C15.9627 6.63222 15.759 6.98659 15.7539 6.9824C15.7494 6.96443 15.8975 6.65919 15.9082 6.64256C15.9174 6.63189 15.8445 6.91331 15.9766 6.59861C15.953 6.62981 15.9284 6.66087 15.9043 6.69236C15.9634 6.54306 16.0063 6.54969 16.0254 6.51658C16.085 6.41254 16.0777 6.28035 16.2286 6.13768C16.268 6.10105 16.2555 6.18589 16.2608 6.18162C16.3113 6.1383 16.2726 6.03726 16.3584 5.98045C16.3641 5.97703 16.3193 6.17494 16.4532 5.85154C16.4393 5.87137 16.4253 5.89206 16.4112 5.91209C16.4189 5.8664 16.542 5.52269 16.5557 5.48436C16.6059 5.36251 16.6078 5.4836 16.6436 5.35838C16.5682 5.42365 16.6763 5.03414 16.711 5.07322C16.6694 5.00957 16.7772 4.70964 16.7813 4.60545C16.7904 4.52281 16.7601 4.4079 16.7598 4.39647C16.7616 4.37991 16.8024 4.37879 16.8067 4.34764C16.8087 4.33309 16.7599 4.27485 16.7959 4.26854C16.8035 4.26674 16.8602 4.2294 16.878 4.22166C16.9093 4.20823 16.8797 4.28265 16.918 4.27537C16.9594 4.25623 16.9083 4.19783 16.9082 4.19822C16.9076 4.1634 16.9508 4.13799 16.9639 4.13084C16.9889 4.10583 16.9455 4.07401 16.9414 4.06932C16.9397 4.05168 16.9926 4.05282 17.0069 4.03807C17.029 4.01832 16.9889 3.93458 17.0079 3.93553C17.0439 3.93988 17.0716 4.01197 17.0743 4.01658C17.1299 4.03564 17.1296 3.94089 17.1202 3.89549C17.1198 3.88283 17.1572 3.89236 17.1534 3.88572C17.0862 3.78211 17.0823 3.94244 17.0264 3.89647C16.9719 3.85799 17.0609 3.86284 17.0684 3.86131C17.0694 3.85731 16.9889 3.81119 16.9756 3.791C16.9841 3.7767 17.2281 3.83248 17.2432 3.81053C17.1748 3.76064 17.1073 3.72868 17.0088 3.69529C17.0239 3.64754 17.1336 3.74057 17.1416 3.74315C17.169 3.74826 17.1201 3.69083 17.128 3.67869C17.1341 3.67031 17.2328 3.68986 17.1661 3.63377C17.1432 3.61548 17.0633 3.60773 16.9649 3.53904C17.3722 3.66524 17.1216 3.52768 17.1104 3.50194C17.1035 3.48005 17.3312 3.53967 17.0713 3.43162C17.0938 3.34109 17.0888 3.40442 17.1709 3.42381C17.2639 3.45234 17.0952 3.31065 17.376 3.51268C17.3971 3.46265 17.127 3.32171 17.1065 3.31932C17.0953 3.31113 17.1671 3.31674 17.1465 3.30076C16.908 3.12609 17.078 3.22806 17.0137 3.15037C17.0125 3.14101 16.7168 3.05285 16.9463 3.09764C17.3413 3.18671 17.452 3.37318 17.584 3.30565C17.3605 3.04659 16.9361 3.03143 16.8418 3.01756C16.6881 2.99126 16.8509 2.99393 16.835 2.98338C16.8272 2.97855 16.6982 2.95919 16.7002 2.95799C16.6616 2.9026 16.8049 2.91538 16.9883 2.97264C17.1599 3.02415 17.3596 3.13497 17.4541 3.18553C17.4131 3.14331 17.3671 3.10267 17.3174 3.06346C17.3937 3.09763 17.4653 3.13659 17.5313 3.17967C17.2138 2.96219 17.5297 3.15221 17.6524 3.15135C17.6803 3.14952 17.4474 3.01697 17.7247 3.16014C17.5465 3.01143 17.617 3.03966 17.42 2.95897C17.4434 2.92052 17.8801 3.14635 18.0108 3.32322C17.7895 3.0321 17.6857 3.02739 17.6329 3.00486C17.5711 2.98967 17.5293 2.95932 17.2705 2.82225C17.1625 2.82381 17.4105 2.91294 17.3907 2.91502C17.2971 2.89827 17.1604 2.80088 16.9278 2.83592C16.8919 2.84306 17.0254 2.91319 16.8135 2.86912C16.7827 2.86268 16.6752 2.8104 16.6739 2.8076C16.694 2.78067 16.8125 2.80981 16.8262 2.80076C16.8279 2.78882 16.6902 2.77387 16.6905 2.77147C16.6921 2.73563 16.8028 2.77432 16.7901 2.7617C16.7679 2.733 16.2403 2.5776 16.9366 2.70897C16.3501 2.65691 16.8409 2.71423 17.087 2.77049C17.1454 2.78335 17.167 2.76715 17.2491 2.78807C17.3473 2.8113 17.4905 2.88992 17.542 2.916C17.6002 2.94964 17.2992 2.69836 17.7618 3.01268C17.668 2.908 17.4811 2.80128 17.2998 2.73826C17.1325 2.67785 16.9494 2.64043 16.8145 2.60057C16.585 2.53098 16.6688 2.52017 16.8243 2.53026C17.0108 2.54402 17.256 2.61304 17.3008 2.62791C17.3255 2.6346 17.2546 2.57941 17.2705 2.58299C17.2848 2.56503 17.8275 2.84699 17.8702 2.88182C17.9327 2.89611 17.6925 2.75603 17.6856 2.72947C17.6891 2.67462 18.3078 3.16985 17.9903 2.87401C17.7746 2.65912 17.2724 2.53671 17.2344 2.45897ZM10.3018 16.4678L10.3291 16.4687C10.3261 16.4598 10.3339 16.4601 10.3409 16.459L10.2979 16.458C10.2994 16.4609 10.2998 16.4645 10.3018 16.4678ZM9.14946 16.4599H9.18266C9.18515 16.4571 9.18784 16.4533 9.19145 16.4492H9.1602C9.15174 16.4575 9.14952 16.4611 9.14946 16.4599ZM10.2784 16.4111C10.2831 16.4209 10.2853 16.4299 10.2911 16.4453L10.3545 16.4463C10.3526 16.45 10.3339 16.4347 10.3272 16.4267C10.3228 16.4212 10.3198 16.4156 10.3174 16.4111H10.2784ZM9.18852 16.4219C9.18244 16.4283 9.17638 16.4329 9.17192 16.4375H9.20219C9.21077 16.4276 9.221 16.4157 9.23246 16.4023H9.2061C9.1988 16.4101 9.19354 16.4168 9.18852 16.4219ZM9.12504 16.4375H9.1436C9.14813 16.4274 9.1546 16.4132 9.16118 16.4013H9.14848C9.13567 16.4179 9.11878 16.4396 9.12504 16.4375ZM12.084 16.084C12.075 16.0719 11.8986 16.2545 11.9024 16.2881C11.9328 16.2526 12.0863 16.0949 12.084 16.084ZM9.11821 15.0801C9.0896 15.0769 9.24217 15.2432 9.24418 15.248C9.24811 15.257 9.22893 15.3175 9.24028 15.334C9.25694 15.3572 9.44308 15.5757 9.57914 15.7383C9.58618 15.7305 9.59252 15.7243 9.59672 15.7197C9.61042 15.7179 9.60422 15.7298 9.58891 15.75C9.59857 15.7615 9.60728 15.7733 9.61625 15.7842C9.62346 15.772 9.62873 15.7605 9.63188 15.749C9.60893 15.7172 9.5942 15.7067 9.58207 15.7031C9.55902 15.723 9.55808 15.7164 9.56743 15.6972C9.5638 15.6968 9.56088 15.6978 9.55864 15.6953C9.52701 15.6579 9.47472 15.5642 9.4102 15.4961C9.47324 15.5568 9.52591 15.605 9.58793 15.664C9.58992 15.6613 9.59262 15.659 9.59477 15.6562C9.46778 15.4961 9.1386 15.0871 9.11821 15.0801ZM9.60649 15.6816C9.61459 15.6894 9.62337 15.6968 9.63188 15.7051C9.62852 15.6979 9.62337 15.6907 9.61625 15.6846V15.6836C9.61447 15.6813 9.61233 15.6792 9.61039 15.6767C9.60903 15.6782 9.60797 15.6801 9.60649 15.6816ZM10.0879 15.001C10.0963 14.9941 10.2367 14.7856 10.21 14.8926L10.1856 14.9316C10.1469 14.9831 10.0738 15.0616 10.0459 15.0879C10.0403 15.0929 10.0336 15.0451 9.97954 15.1133C9.93771 15.1665 10.0305 15.1137 9.94047 15.2109C9.85092 15.3074 9.94516 15.1559 9.93657 15.1631C9.92342 15.1749 9.80631 15.3382 9.79496 15.3183C9.7863 15.3045 9.9316 15.1494 9.96684 15.1025C10.0101 15.0445 9.93376 15.0943 10.0166 15.0049C10.0695 14.9476 10.0759 15.0114 10.0879 15.001ZM10.5577 14.7529C10.5251 14.7802 10.3551 15.0074 10.4258 14.9453C10.4871 14.8919 10.6085 14.7114 10.5577 14.7529ZM10.5723 14.6543C10.5554 14.6723 10.2929 14.9662 10.3653 14.9209C10.3929 14.9026 10.8451 14.369 10.5723 14.6543ZM9.02348 14.8066C8.97074 14.71 9.20487 14.9881 9.10746 14.9062C9.103 14.9023 9.02879 14.8142 9.02348 14.8066ZM8.76274 14.6426C8.78584 14.7016 8.89228 14.8234 8.877 14.7734C8.87569 14.7689 8.79061 14.6516 8.76274 14.6426ZM10.6993 14.75C10.6998 14.7707 10.7411 14.7108 10.7784 14.6758V14.6767C10.8204 14.6373 10.9281 14.5235 10.9805 14.4219C10.8841 14.5347 10.7903 14.6444 10.6993 14.75ZM10.7627 14.2129C10.7424 14.2787 10.6077 14.4134 10.543 14.4853C10.5647 14.426 10.6989 14.2778 10.7627 14.2129ZM8.55961 14.3652C8.53945 14.3231 8.43739 14.2406 8.4727 14.3105C8.49902 14.346 8.55832 14.3685 8.55961 14.3652ZM11.0997 14.2461C11.2428 14.1555 11.1421 14.1722 11.0391 14.2705C11.0301 14.3188 11.0763 14.2609 11.0997 14.2461ZM8.24418 14.083C8.25311 14.0961 8.41123 14.2951 8.41996 14.2842C8.38564 14.2276 8.16398 13.9594 8.24418 14.083ZM10.9981 14.1269C10.9754 14.1448 10.8852 14.2663 10.8956 14.2744C10.9211 14.2781 11.0345 14.0989 10.9981 14.1269ZM10.8721 13.9785C10.8427 14.029 10.8675 14.0523 10.8213 14.1025C10.6733 14.264 10.7687 14.1223 10.8721 13.9785ZM11.211 14.165C11.3451 14.0654 11.3118 13.9879 11.2334 14.083C11.2029 14.12 11.1919 14.179 11.211 14.165ZM8.12993 13.8652C8.16032 13.933 8.30862 14.0713 8.28129 14.0263C8.25948 13.9921 8.1002 13.7984 8.12993 13.8652ZM11.0811 13.709C11.1426 13.6724 11.0081 13.8224 11.0069 13.8262C11.0064 13.8342 11.1475 13.7942 10.9161 13.9892C10.8823 14.0177 10.9622 13.8848 10.9522 13.8916C10.9269 13.9132 10.908 13.9315 10.8946 13.9472C10.9768 13.8349 11.068 13.7169 11.0811 13.709ZM11.3897 13.8203C11.4067 13.7708 11.2436 13.9561 11.2364 13.9687C11.192 14.0464 11.3553 13.9177 11.3897 13.8203ZM8.03129 13.7705C7.91943 13.677 8.11248 13.8992 8.17778 13.9756C8.19365 13.9708 8.03946 13.7777 8.03129 13.7705ZM11.1504 13.7441C11.1672 13.7486 11.0206 13.9527 10.9805 13.9404C11.0158 13.9016 11.1387 13.743 11.1504 13.7441ZM11.7217 13.499C11.6974 13.5132 11.548 13.7394 11.5391 13.7471C11.5252 13.7595 11.5541 13.6743 11.4698 13.7881C11.4835 13.7878 11.4533 13.8716 11.4649 13.8633C11.5037 13.8315 11.7877 13.4628 11.7217 13.499Z" fill="#FF3C3C"/>
</svg>

